<svg width="23" height="23" viewBox="0 0 23 23" fill="none" xmlns="http://www.w3.org/2000/svg">
<path d="M15.001 9.66737C15.001 8.34119 14.4742 7.06932 13.5365 6.13157C12.5987 5.19382 11.3268 4.66699 10.0007 4.66699C8.67448 4.66699 7.40261 5.19382 6.46486 6.13157C5.52711 7.06932 5.00028 8.34119 5.00028 9.66737C5.00028 15.5012 2.50009 17.1679 2.50009 17.1679H17.5012C17.5012 17.1679 15.001 15.5012 15.001 9.66737Z" stroke="#1E1E1E" stroke-width="1.5" stroke-linecap="round" stroke-linejoin="round"/>
<path d="M11.4425 20.501C11.2959 20.7536 11.0856 20.9633 10.8325 21.109C10.5795 21.2548 10.2926 21.3315 10.0005 21.3315C9.70847 21.3315 9.42156 21.2548 9.16849 21.109C8.91543 20.9633 8.7051 20.7536 8.55856 20.501" stroke="#1E1E1E" stroke-width="1.5" stroke-linecap="round" stroke-linejoin="round"/>
<circle cx="19.5" cy="3.5" r="3.5" fill="#FF0000"/>
</svg>
