<svg width="21" height="21" viewBox="0 0 21 21" fill="none" xmlns="http://www.w3.org/2000/svg">
<path d="M15.001 6.66689C15.001 5.3407 14.4742 4.06884 13.5365 3.13108C12.5987 2.19333 11.3268 1.6665 10.0007 1.6665C8.67448 1.6665 7.40261 2.19333 6.46486 3.13108C5.52711 4.06884 5.00028 5.3407 5.00028 6.66689C5.00028 12.5007 2.50009 14.1675 2.50009 14.1675H17.5012C17.5012 14.1675 15.001 12.5007 15.001 6.66689Z" stroke="#1E1E1E" stroke-width="1.5" stroke-linecap="round" stroke-linejoin="round"/>
<path d="M11.4425 17.501C11.2959 17.7536 11.0856 17.9633 10.8325 18.109C10.5795 18.2548 10.2926 18.3315 10.0005 18.3315C9.70848 18.3315 9.42156 18.2548 9.1685 18.109C8.91543 17.9633 8.7051 17.7536 8.55856 17.501" stroke="#1E1E1E" stroke-width="1.5" stroke-linecap="round" stroke-linejoin="round"/>
</svg>
