<svg width="16" height="16" viewBox="0 0 16 16" fill="none" xmlns="http://www.w3.org/2000/svg">
<path d="M7.99975 14.667C8.36798 14.667 8.6665 14.3685 8.6665 14.0002C8.6665 13.632 8.36798 13.3335 7.99975 13.3335C7.63152 13.3335 7.33301 13.632 7.33301 14.0002C7.33301 14.3685 7.63152 14.667 7.99975 14.667Z" stroke="#A3AAB6" stroke-width="1.66678" stroke-linecap="round" stroke-linejoin="round"/>
<path d="M7.99975 9.33349C8.36798 9.33349 8.6665 9.03498 8.6665 8.66674C8.6665 8.29851 8.36798 8 7.99975 8C7.63152 8 7.33301 8.29851 7.33301 8.66674C7.33301 9.03498 7.63152 9.33349 7.99975 9.33349Z" stroke="#A3AAB6" stroke-width="1.66678" stroke-linecap="round" stroke-linejoin="round"/>
<path d="M7.99975 3.99999C8.36798 3.99999 8.6665 3.70148 8.6665 3.33325C8.6665 2.96502 8.36798 2.6665 7.99975 2.6665C7.63152 2.6665 7.33301 2.96502 7.33301 3.33325C7.33301 3.70148 7.63152 3.99999 7.99975 3.99999Z" stroke="#A3AAB6" stroke-width="1.66678" stroke-linecap="round" stroke-linejoin="round"/>
</svg>
